<mxfile host="Electron" agent="Mozilla/5.0 (Macintosh; Intel Mac OS X 10_15_7) AppleWebKit/537.36 (KHTML, like Gecko) draw.io/26.0.4 Chrome/128.0.6613.186 Electron/32.2.5 Safari/537.36" version="26.0.4">
  <diagram name="Page-1" id="XZUraAcWAxgemYVRdINM">
    <mxGraphModel dx="1192" dy="854" grid="1" gridSize="10" guides="1" tooltips="1" connect="1" arrows="1" fold="1" page="1" pageScale="1" pageWidth="827" pageHeight="1169" math="0" shadow="0">
      <root>
        <mxCell id="0" />
        <mxCell id="1" parent="0" />
        <mxCell id="cN94hHZzQ2RN9YNxzTGH-1" value="Клиент" style="shape=umlActor;verticalLabelPosition=bottom;verticalAlign=top;html=1;" vertex="1" parent="1">
          <mxGeometry x="60" y="110" width="30" height="60" as="geometry" />
        </mxCell>
        <mxCell id="cN94hHZzQ2RN9YNxzTGH-2" value="Менеджер&lt;div&gt;front-офиса&lt;/div&gt;" style="shape=umlActor;verticalLabelPosition=bottom;verticalAlign=top;html=1;" vertex="1" parent="1">
          <mxGeometry x="60" y="220" width="30" height="60" as="geometry" />
        </mxCell>
        <mxCell id="cN94hHZzQ2RN9YNxzTGH-12" style="edgeStyle=orthogonalEdgeStyle;rounded=0;orthogonalLoop=1;jettySize=auto;html=1;exitX=0.5;exitY=0.5;exitDx=0;exitDy=0;exitPerimeter=0;entryX=0;entryY=0.25;entryDx=0;entryDy=0;" edge="1" parent="1" source="cN94hHZzQ2RN9YNxzTGH-3" target="cN94hHZzQ2RN9YNxzTGH-9">
          <mxGeometry relative="1" as="geometry" />
        </mxCell>
        <mxCell id="cN94hHZzQ2RN9YNxzTGH-13" value="Обрабатывает заявки&lt;div&gt;на депозит&lt;/div&gt;" style="edgeLabel;html=1;align=center;verticalAlign=middle;resizable=0;points=[];" vertex="1" connectable="0" parent="cN94hHZzQ2RN9YNxzTGH-12">
          <mxGeometry x="-0.3791" y="-2" relative="1" as="geometry">
            <mxPoint as="offset" />
          </mxGeometry>
        </mxCell>
        <mxCell id="cN94hHZzQ2RN9YNxzTGH-3" value="Менеджер&lt;div&gt;депозитов&lt;/div&gt;" style="shape=umlActor;verticalLabelPosition=bottom;verticalAlign=top;html=1;" vertex="1" parent="1">
          <mxGeometry x="60" y="340" width="30" height="60" as="geometry" />
        </mxCell>
        <mxCell id="cN94hHZzQ2RN9YNxzTGH-24" style="edgeStyle=orthogonalEdgeStyle;rounded=0;orthogonalLoop=1;jettySize=auto;html=1;exitX=0.5;exitY=0.5;exitDx=0;exitDy=0;exitPerimeter=0;entryX=0;entryY=0.5;entryDx=0;entryDy=0;" edge="1" parent="1" source="cN94hHZzQ2RN9YNxzTGH-4" target="cN94hHZzQ2RN9YNxzTGH-9">
          <mxGeometry relative="1" as="geometry" />
        </mxCell>
        <mxCell id="cN94hHZzQ2RN9YNxzTGH-25" value="Расчет кредитного&amp;nbsp;&lt;div&gt;риска банка&lt;/div&gt;" style="edgeLabel;html=1;align=center;verticalAlign=middle;resizable=0;points=[];" vertex="1" connectable="0" parent="cN94hHZzQ2RN9YNxzTGH-24">
          <mxGeometry x="-0.4683" y="1" relative="1" as="geometry">
            <mxPoint as="offset" />
          </mxGeometry>
        </mxCell>
        <mxCell id="cN94hHZzQ2RN9YNxzTGH-4" value="Менеджер&lt;div&gt;кредитов&lt;/div&gt;" style="shape=umlActor;verticalLabelPosition=bottom;verticalAlign=top;html=1;" vertex="1" parent="1">
          <mxGeometry x="60" y="460" width="30" height="60" as="geometry" />
        </mxCell>
        <mxCell id="cN94hHZzQ2RN9YNxzTGH-7" style="edgeStyle=orthogonalEdgeStyle;rounded=0;orthogonalLoop=1;jettySize=auto;html=1;exitX=0.5;exitY=0.5;exitDx=0;exitDy=0;exitPerimeter=0;entryX=0;entryY=0.5;entryDx=0;entryDy=0;" edge="1" parent="1" source="cN94hHZzQ2RN9YNxzTGH-5" target="cN94hHZzQ2RN9YNxzTGH-6">
          <mxGeometry relative="1" as="geometry" />
        </mxCell>
        <mxCell id="cN94hHZzQ2RN9YNxzTGH-8" value="Заводит заявку&amp;nbsp;&lt;div&gt;на депозит&lt;/div&gt;" style="edgeLabel;html=1;align=center;verticalAlign=middle;resizable=0;points=[];" vertex="1" connectable="0" parent="cN94hHZzQ2RN9YNxzTGH-7">
          <mxGeometry x="-0.1892" y="-2" relative="1" as="geometry">
            <mxPoint x="20" y="-2" as="offset" />
          </mxGeometry>
        </mxCell>
        <mxCell id="cN94hHZzQ2RN9YNxzTGH-5" value="Сотрудник&amp;nbsp;&lt;div&gt;call-центра&lt;/div&gt;" style="shape=umlActor;verticalLabelPosition=bottom;verticalAlign=top;html=1;" vertex="1" parent="1">
          <mxGeometry x="60" y="580" width="30" height="60" as="geometry" />
        </mxCell>
        <mxCell id="cN94hHZzQ2RN9YNxzTGH-10" style="edgeStyle=orthogonalEdgeStyle;rounded=0;orthogonalLoop=1;jettySize=auto;html=1;exitX=1;exitY=0.5;exitDx=0;exitDy=0;entryX=0;entryY=0.75;entryDx=0;entryDy=0;" edge="1" parent="1" source="cN94hHZzQ2RN9YNxzTGH-6" target="cN94hHZzQ2RN9YNxzTGH-9">
          <mxGeometry relative="1" as="geometry" />
        </mxCell>
        <mxCell id="cN94hHZzQ2RN9YNxzTGH-11" value="Заявка&lt;div&gt;на&lt;/div&gt;&lt;div&gt;депозит&lt;/div&gt;" style="edgeLabel;html=1;align=center;verticalAlign=middle;resizable=0;points=[];" vertex="1" connectable="0" parent="cN94hHZzQ2RN9YNxzTGH-10">
          <mxGeometry x="0.1969" y="3" relative="1" as="geometry">
            <mxPoint y="11" as="offset" />
          </mxGeometry>
        </mxCell>
        <mxCell id="cN94hHZzQ2RN9YNxzTGH-6" value="Система кол-центра" style="html=1;whiteSpace=wrap;" vertex="1" parent="1">
          <mxGeometry x="260" y="585" width="110" height="50" as="geometry" />
        </mxCell>
        <mxCell id="cN94hHZzQ2RN9YNxzTGH-16" style="edgeStyle=orthogonalEdgeStyle;rounded=0;orthogonalLoop=1;jettySize=auto;html=1;exitX=1;exitY=0.5;exitDx=0;exitDy=0;entryX=0;entryY=0.5;entryDx=0;entryDy=0;" edge="1" parent="1" source="cN94hHZzQ2RN9YNxzTGH-9" target="cN94hHZzQ2RN9YNxzTGH-14">
          <mxGeometry relative="1" as="geometry" />
        </mxCell>
        <mxCell id="cN94hHZzQ2RN9YNxzTGH-17" value="Отправка SMS&lt;div&gt;о назначении&lt;/div&gt;&lt;div&gt;ставки депозита&lt;/div&gt;" style="edgeLabel;html=1;align=center;verticalAlign=middle;resizable=0;points=[];" vertex="1" connectable="0" parent="cN94hHZzQ2RN9YNxzTGH-16">
          <mxGeometry x="-0.1455" y="1" relative="1" as="geometry">
            <mxPoint y="1" as="offset" />
          </mxGeometry>
        </mxCell>
        <mxCell id="cN94hHZzQ2RN9YNxzTGH-9" value="АБС" style="html=1;whiteSpace=wrap;" vertex="1" parent="1">
          <mxGeometry x="440" y="240" width="120" height="395" as="geometry" />
        </mxCell>
        <mxCell id="cN94hHZzQ2RN9YNxzTGH-18" style="edgeStyle=orthogonalEdgeStyle;rounded=0;orthogonalLoop=1;jettySize=auto;html=1;exitX=1;exitY=0.5;exitDx=0;exitDy=0;entryX=0;entryY=0.5;entryDx=0;entryDy=0;" edge="1" parent="1" source="cN94hHZzQ2RN9YNxzTGH-14" target="cN94hHZzQ2RN9YNxzTGH-15">
          <mxGeometry relative="1" as="geometry" />
        </mxCell>
        <mxCell id="cN94hHZzQ2RN9YNxzTGH-19" value="Отправка SMS" style="edgeLabel;html=1;align=center;verticalAlign=middle;resizable=0;points=[];" vertex="1" connectable="0" parent="cN94hHZzQ2RN9YNxzTGH-18">
          <mxGeometry x="-0.2432" y="3" relative="1" as="geometry">
            <mxPoint y="1" as="offset" />
          </mxGeometry>
        </mxCell>
        <mxCell id="cN94hHZzQ2RN9YNxzTGH-14" value="SMS шлюз" style="html=1;whiteSpace=wrap;" vertex="1" parent="1">
          <mxGeometry x="710" y="412.5" width="110" height="50" as="geometry" />
        </mxCell>
        <mxCell id="cN94hHZzQ2RN9YNxzTGH-15" value="Телеком оператор" style="html=1;whiteSpace=wrap;" vertex="1" parent="1">
          <mxGeometry x="950" y="410" width="110" height="50" as="geometry" />
        </mxCell>
        <mxCell id="cN94hHZzQ2RN9YNxzTGH-20" style="edgeStyle=orthogonalEdgeStyle;rounded=0;orthogonalLoop=1;jettySize=auto;html=1;exitX=0.5;exitY=0;exitDx=0;exitDy=0;entryX=0.5;entryY=0.5;entryDx=0;entryDy=0;entryPerimeter=0;" edge="1" parent="1" source="cN94hHZzQ2RN9YNxzTGH-15" target="cN94hHZzQ2RN9YNxzTGH-1">
          <mxGeometry relative="1" as="geometry">
            <Array as="points">
              <mxPoint x="1005" y="140" />
            </Array>
          </mxGeometry>
        </mxCell>
        <mxCell id="cN94hHZzQ2RN9YNxzTGH-21" value="Отправка SMS клиенту" style="edgeLabel;html=1;align=center;verticalAlign=middle;resizable=0;points=[];" vertex="1" connectable="0" parent="cN94hHZzQ2RN9YNxzTGH-20">
          <mxGeometry x="-0.9017" y="1" relative="1" as="geometry">
            <mxPoint as="offset" />
          </mxGeometry>
        </mxCell>
        <mxCell id="cN94hHZzQ2RN9YNxzTGH-26" style="edgeStyle=orthogonalEdgeStyle;rounded=0;orthogonalLoop=1;jettySize=auto;html=1;exitX=0.5;exitY=0.5;exitDx=0;exitDy=0;exitPerimeter=0;entryX=-0.017;entryY=0.104;entryDx=0;entryDy=0;entryPerimeter=0;" edge="1" parent="1" source="cN94hHZzQ2RN9YNxzTGH-2" target="cN94hHZzQ2RN9YNxzTGH-9">
          <mxGeometry relative="1" as="geometry" />
        </mxCell>
        <mxCell id="cN94hHZzQ2RN9YNxzTGH-27" value="Создает депозит&lt;div&gt;Загружает документы&lt;/div&gt;" style="edgeLabel;html=1;align=center;verticalAlign=middle;resizable=0;points=[];" vertex="1" connectable="0" parent="cN94hHZzQ2RN9YNxzTGH-26">
          <mxGeometry x="-0.3402" y="1" relative="1" as="geometry">
            <mxPoint x="-5" y="1" as="offset" />
          </mxGeometry>
        </mxCell>
      </root>
    </mxGraphModel>
  </diagram>
</mxfile>
